<svg width="96" height="26" viewBox="0 0 96 26" fill="none" xmlns="http://www.w3.org/2000/svg">
<path d="M10.3204 15.1451H17.2722V20.1111C16.7801 20.5531 16.1367 20.8911 15.3418 21.1511C14.4082 21.4501 13.361 21.5931 12.2255 21.5931C11.1153 21.5931 10.0807 21.3851 9.13445 20.9691C8.1882 20.5531 7.36812 19.9681 6.68682 19.2141C6.00552 18.4601 5.47562 17.5631 5.0845 16.5101C4.70601 15.4571 4.51676 14.3131 4.51676 13.0781C4.51676 11.8561 4.71862 10.7381 5.12235 9.69807C5.52609 8.65807 6.09384 7.76107 6.8256 6.99407C7.55737 6.22707 8.40268 5.62907 9.37416 5.20007C10.3456 4.77107 11.4181 4.55007 12.5662 4.55007C13.6512 4.55007 14.6984 4.71907 15.7077 5.07007C16.717 5.42107 17.6633 5.94107 18.5465 6.63007L20.3506 2.79507C18.231 1.02707 15.6194 0.143066 12.5157 0.143066C10.7241 0.143066 9.07136 0.468066 7.54475 1.13107C6.01814 1.79407 4.69339 2.69107 3.58312 3.84807C2.47286 5.00507 1.5897 6.37007 0.958864 7.95607C0.315416 9.52907 0 11.2321 0 13.0781C0 14.9891 0.290183 16.7311 0.883165 18.3041C1.47615 19.8771 2.30884 21.2421 3.38126 22.3861C4.45367 23.5301 5.74057 24.4271 7.21672 25.0511C8.70548 25.6881 10.333 26.0001 12.112 26.0001C14.0549 26.0001 15.8591 25.6751 17.4993 25.0121C19.1394 24.3621 20.5399 23.4001 21.7006 22.1261V10.9981H12.2634L10.3204 15.1451Z" fill="white"/>
<path d="M27.252 25.61H32.3617L39.6036 9.893L46.7825 25.61H51.9301L39.591 0L27.252 25.61Z" fill="white"/>
<path d="M84.5316 21.3067V15.1837H91.9628L93.9814 10.8807H84.5316V4.83571H95.1674V0.532715H80.0779V25.6097H96.0001V21.3067H84.5316Z" fill="white"/>
<path d="M62.9443 0.532715H58.4906V25.6097H73.3404V21.3067H62.9443V0.532715Z" fill="white"/>
</svg>
